<svg xmlns="http://www.w3.org/2000/svg" viewBox="0 0 320 200" fill="none">
  <defs>
    <linearGradient id="n1" x1="0" y1="0" x2="1" y2="1">
      <stop offset="0" stop-color="#22d3ee" stop-opacity="0.85"/>
      <stop offset="1" stop-color="#3b82f6" stop-opacity="0.5"/>
    </linearGradient>
  </defs>
  <rect x="24" y="32" width="272" height="140" rx="10" fill="url(#n1)"/>
  <rect x="36" y="46" width="60" height="16" rx="3" fill="#fff" fill-opacity="0.85"/>
  <rect x="100" y="46" width="90" height="16" rx="3" fill="#fff" fill-opacity="0.85"/>
  <rect x="194" y="46" width="90" height="16" rx="3" fill="#fff" fill-opacity="0.85"/>
  <rect x="36" y="70" width="248" height="1" fill="#fff" fill-opacity="0.4"/>
  <rect x="36" y="80" width="60" height="12" rx="3" fill="#fff" fill-opacity="0.55"/>
  <rect x="100" y="80" width="90" height="12" rx="3" fill="#fff" fill-opacity="0.55"/>
  <rect x="194" y="80" width="50" height="12" rx="6" fill="#34d399"/>
  <rect x="36" y="100" width="60" height="12" rx="3" fill="#fff" fill-opacity="0.55"/>
  <rect x="100" y="100" width="90" height="12" rx="3" fill="#fff" fill-opacity="0.55"/>
  <rect x="194" y="100" width="50" height="12" rx="6" fill="#fbbf24"/>
  <rect x="36" y="120" width="60" height="12" rx="3" fill="#fff" fill-opacity="0.55"/>
  <rect x="100" y="120" width="90" height="12" rx="3" fill="#fff" fill-opacity="0.55"/>
  <rect x="194" y="120" width="50" height="12" rx="6" fill="#f87171"/>
  <rect x="36" y="140" width="60" height="12" rx="3" fill="#fff" fill-opacity="0.55"/>
  <rect x="100" y="140" width="90" height="12" rx="3" fill="#fff" fill-opacity="0.55"/>
  <rect x="194" y="140" width="50" height="12" rx="6" fill="#34d399"/>
</svg>
